<svg xmlns="http://www.w3.org/2000/svg" viewBox="0 0 1024 1024">
  <path transform="rotate(90 512 512)" d="M406.08 457.984a32 32 0 0 1 31.808 28.256l.224 3.744v392a32 32 0 0 1-28.288 31.776l-3.712.224H190.08a32 32 0 0 1-31.808-28.288l-.192-3.712v-392a32 32 0 0 1 28.256-31.808l3.744-.192h216zm428 0a32 32 0 0 1 31.808 28.256l.192 3.744v392a32 32 0 0 1-28.256 31.776l-3.744.224h-216a32 32 0 0 1-31.776-28.288l-.224-3.712v-392a32 32 0 0 1 28.288-31.808l3.712-.192h216zM374.08 521.92h-152v328h152v-328zm428.032 0h-152v328h152v-328zM709.056 142.56c1.056 0 2.144.32 3.072.864l150.016 89.408a6.016 6.016 0 0 1 0 10.336l-150.016 89.408a5.984 5.984 0 0 1-9.088-5.12v-53.504H322.528v53.44a5.984 5.984 0 0 1-7.264 5.888l-1.792-.736L163.456 243.2a5.984 5.984 0 0 1-1.472-9.088l1.472-1.248 150.016-89.408a6.016 6.016 0 0 1 8.768 3.232l.32 1.92-.032 53.408h380.48l.032-53.44c0-3.296 2.688-5.984 6.016-5.984z"/>
</svg>
